<?xml version="1.0" standalone="no"?>
<!DOCTYPE svg PUBLIC "-//W3C//DTD SVG 20010904//EN"
 "http://www.w3.org/TR/2001/REC-SVG-20010904/DTD/svg10.dtd">
<svg version="1.0" xmlns="http://www.w3.org/2000/svg"
 width="495.000000pt" height="504.000000pt" viewBox="0 0 495.000000 504.000000"
 preserveAspectRatio="xMidYMid meet">

<g transform="translate(0.000000,504.000000) scale(0.100000,-0.100000)"
fill="#000000" stroke="none">
<path d="M1419 4874 c-11 -13 -10 -30 5 -102 10 -48 24 -100 32 -117 7 -16 22
-57 33 -90 54 -164 90 -257 104 -273 8 -9 19 -35 22 -57 9 -48 34 -114 50
-135 7 -8 15 -35 19 -60 4 -24 20 -72 35 -105 16 -33 40 -91 55 -130 l26 -70
-48 52 c-50 55 -92 80 -183 108 -94 30 -104 15 -68 -101 31 -100 84 -207 120
-242 l32 -31 -35 -40 c-20 -24 -41 -65 -52 -103 -26 -87 -88 -206 -133 -252
-54 -56 -104 -76 -190 -76 -40 0 -84 5 -98 12 -44 20 -40 -1 11 -53 66 -68
107 -93 182 -110 56 -12 63 -16 57 -34 -3 -11 -16 -69 -30 -130 -59 -269 -60
-270 -206 -490 -62 -93 -118 -179 -125 -190 -6 -11 -30 -51 -53 -90 -38 -64
-41 -75 -41 -141 0 -78 13 -129 36 -138 8 -3 14 -16 14 -29 0 -33 73 -113 129
-141 92 -47 182 -46 200 2 9 26 9 27 10 3 1 -28 27 -50 58 -51 32 0 84 49 139
133 60 90 127 156 224 219 73 48 120 65 345 128 44 13 118 35 163 51 71 24 83
25 76 11 -14 -31 -42 -126 -54 -182 -11 -51 -62 -224 -111 -380 -32 -100 -94
-221 -178 -349 -123 -185 -160 -286 -168 -461 -5 -102 -4 -108 27 -183 18 -43
34 -76 37 -73 3 3 -5 34 -16 69 -17 49 -22 90 -22 163 0 171 39 285 165 478
72 111 136 223 136 241 0 4 6 21 14 38 8 18 29 79 46 137 18 58 43 137 55 176
13 40 33 114 44 165 20 95 40 151 63 180 7 8 40 34 74 56 83 57 172 155 208
233 29 61 31 72 30 175 -1 98 -4 121 -35 209 -30 89 -57 131 -74 115 -3 -3 5
-41 17 -85 16 -58 22 -109 22 -194 1 -123 2 -119 -74 -255 -31 -55 -100 -143
-152 -191 -48 -47 -113 -71 -378 -144 -180 -50 -217 -67 -326 -148 -71 -53
-174 -166 -174 -191 0 -5 -3 -11 -7 -13 -5 -1 -21 -20 -36 -41 -37 -48 -70
-70 -97 -62 -44 14 -6 109 80 196 33 34 60 70 60 80 0 28 -15 23 -53 -18 -18
-21 -55 -61 -80 -89 -26 -28 -58 -76 -72 -107 -27 -63 -33 -65 -113 -45 -60
15 -111 47 -151 95 -40 48 -39 71 4 106 42 34 67 79 63 115 -4 36 -29 39 -65
8 -28 -23 -36 -38 -58 -101 l-7 -20 -8 20 c-5 11 -9 48 -9 83 -1 70 19 120 93
227 22 33 43 64 46 70 3 5 51 79 107 163 113 168 122 191 173 423 37 172 44
189 72 189 33 1 58 23 58 53 0 31 -28 50 -53 36 -9 -6 -24 -23 -32 -39 -18
-35 -28 -36 -106 -14 -52 15 -139 73 -139 92 0 4 30 7 68 8 84 1 145 27 201
85 48 50 110 167 136 257 12 40 30 75 52 98 18 20 33 39 33 43 0 5 20 11 44
14 98 14 121 45 90 122 -22 53 -93 147 -128 170 -31 20 -85 23 -97 4 -17 -24
4 -125 46 -223 6 -14 5 -17 -3 -12 -20 12 -102 201 -117 270 -6 29 -6 29 34
23 23 -3 70 -19 105 -35 54 -25 72 -41 124 -109 85 -112 123 -143 174 -143 60
0 128 35 128 66 0 14 -10 30 -26 41 -26 16 -29 16 -88 -6 -82 -30 -100 -31
-104 -5 -2 16 4 24 26 32 16 5 45 24 65 42 44 38 49 75 13 91 -37 17 -83 -12
-109 -69 l-20 -47 -19 40 c-10 22 -23 57 -29 77 -11 36 -11 39 16 59 41 33 85
99 85 128 0 15 4 21 9 16 8 -9 66 -120 186 -353 43 -84 50 -93 73 -90 21 2 30
14 51 65 14 35 39 79 55 98 34 43 113 101 147 110 23 6 26 2 56 -92 32 -99 58
-240 51 -284 -3 -23 -4 -22 -26 13 -25 40 -52 150 -52 215 0 106 -58 125 -104
35 -27 -53 -56 -156 -56 -202 0 -35 5 -52 23 -68 32 -30 100 -52 162 -52 143
0 401 -148 538 -308 43 -51 72 -92 64 -92 -28 0 -64 -40 -76 -82 -19 -68 6
-198 115 -603 15 -55 30 -116 34 -135 64 -295 64 -304 5 -485 -16 -47 -117
-287 -170 -400 -67 -146 -107 -239 -125 -300 -20 -67 -50 -232 -50 -279 0 -88
71 -266 145 -363 62 -81 166 -185 233 -232 47 -33 51 -20 5 14 -64 48 -202
195 -247 264 -24 37 -58 102 -77 146 -30 73 -33 89 -33 180 1 152 31 259 135
483 22 46 39 85 39 87 0 2 16 38 36 81 87 188 152 363 168 449 18 95 -5 234
-93 555 -75 280 -102 401 -103 479 -3 113 68 150 138 73 94 -102 133 -182 134
-272 1 -102 26 -339 44 -410 20 -78 28 -95 83 -182 72 -114 111 -194 129 -260
14 -55 15 -82 5 -203 -15 -191 -18 -363 -7 -470 l8 -90 -41 53 c-47 59 -131
112 -177 112 -116 0 -129 -164 -23 -285 67 -76 137 -78 203 -5 20 22 36 45 36
50 0 26 19 5 43 -48 38 -82 55 -159 66 -301 16 -198 53 -251 223 -319 42 -17
98 -34 124 -38 44 -6 46 -6 35 14 -6 11 -15 22 -20 24 -36 13 -129 214 -118
255 4 14 5 13 6 -5 3 -71 85 -168 181 -217 93 -47 220 -79 220 -56 0 8 -27
185 -56 371 -8 52 -17 120 -20 150 l-4 55 19 -51 c30 -80 49 -111 84 -138 51
-39 67 -35 67 17 0 86 31 230 69 326 90 222 119 331 130 476 l7 100 19 -40
c10 -22 19 -60 20 -85 2 -69 27 -66 56 7 30 79 38 234 15 324 -63 248 -270
452 -576 569 -134 50 -134 50 -35 47 76 -2 101 -8 157 -34 65 -31 149 -102
196 -168 32 -45 43 -19 40 90 -4 111 -27 165 -113 261 -98 110 -194 163 -380
209 -85 21 -88 22 -55 30 45 10 90 36 90 52 0 7 -28 27 -62 44 -75 37 -203
131 -218 159 -13 25 -18 25 68 -5 70 -24 122 -32 135 -19 24 25 -190 273 -340
394 -102 82 -175 115 -328 145 -71 14 -131 28 -134 30 -4 5 -2 5 68 27 62 18
62 34 -1 51 -134 39 -259 45 -400 21 -55 -9 -49 8 32 87 39 38 70 74 70 81 0
16 -173 1 -262 -22 -84 -22 -119 -45 -133 -88 -6 -17 -13 -34 -17 -37 -3 -3
-16 28 -29 69 -22 72 -25 76 -53 76 -38 0 -116 -50 -167 -109 -40 -44 -53 -68
-79 -138 -11 -29 -40 -47 -40 -24 0 5 -38 80 -83 167 -46 88 -111 211 -144
274 -33 63 -69 131 -80 150 -11 19 -46 85 -78 145 -81 153 -164 307 -194 357
-9 14 -29 48 -45 75 -32 54 -56 83 -66 83 -4 0 -13 -7 -21 -16z m78 -96 c99
-164 121 -210 94 -194 -16 10 -41 -5 -56 -33 -10 -19 -15 -22 -18 -11 -29 87
-29 82 -2 110 24 25 25 27 7 43 -12 11 -22 13 -32 7 -24 -15 -26 -13 -38 41
-11 48 -16 119 -8 119 2 0 26 -37 53 -82z m13 -102 c0 -3 -4 -8 -10 -11 -5 -3
-10 -1 -10 4 0 6 5 11 10 11 6 0 10 -2 10 -4z m80 -118 c0 -7 -9 -24 -20 -38
-16 -21 -20 -22 -20 -7 0 23 18 57 30 57 6 0 10 -6 10 -12z m73 -71 c9 -18 59
-111 110 -208 112 -210 111 -208 88 -202 -28 7 -89 -52 -103 -99 -10 -36 -13
-38 -24 -23 -7 10 -18 42 -24 72 -12 54 -11 56 18 87 65 69 71 136 12 136 -17
0 -58 -53 -65 -84 -6 -29 -8 -28 -27 35 l-20 65 26 39 c49 71 26 169 -27 116
-11 -11 -23 -37 -27 -58 l-6 -38 -22 72 -22 71 30 30 c16 17 30 39 30 49 0 16
3 15 18 -5 10 -13 26 -38 35 -55z m-3 -102 c0 -28 -20 -75 -32 -75 -11 0 -10
43 2 74 12 33 30 34 30 1z m100 -179 c0 -17 -42 -78 -57 -84 -17 -5 -16 21 1
63 10 24 22 35 35 35 12 0 21 -6 21 -14z m94 -178 c-8 -28 -35 -67 -63 -92
-21 -19 -21 -19 -21 3 0 40 49 111 77 111 10 0 12 -7 7 -22z m952 -199 c-39
-42 -56 -68 -54 -83 3 -23 8 -24 184 -11 66 5 111 3 168 -9 113 -23 117 -29
36 -51 -39 -11 -69 -23 -67 -29 3 -10 48 -22 187 -51 207 -43 267 -75 430
-235 121 -117 240 -264 219 -268 -8 -1 -49 9 -90 24 -40 14 -87 28 -102 31
l-29 6 20 -39 c11 -22 33 -51 49 -65 36 -34 135 -100 191 -128 23 -12 40 -25
38 -30 -10 -16 -96 -33 -175 -35 -46 0 -80 -5 -78 -11 2 -5 43 -15 92 -22 138
-20 252 -51 344 -95 67 -32 100 -56 157 -115 97 -98 128 -162 132 -268 l4 -80
-48 54 c-81 91 -177 143 -307 166 -49 8 -141 -3 -164 -20 -20 -15 -26 -12 72
-41 33 -10 104 -37 159 -61 243 -106 406 -265 484 -471 21 -56 25 -85 26 -177
1 -68 -4 -129 -13 -159 l-14 -48 -18 58 c-11 35 -33 75 -54 99 -20 22 -44 56
-55 75 -65 121 -401 469 -493 511 -32 14 -57 6 -57 -20 0 -29 78 -126 187
-231 108 -105 134 -127 263 -227 119 -91 125 -104 124 -228 -1 -121 -28 -229
-108 -432 -53 -135 -86 -271 -86 -355 0 -48 -20 -50 -56 -4 -38 48 -59 108
-89 264 -24 123 -62 283 -81 337 -80 235 -179 404 -216 367 -10 -10 16 -85 77
-222 126 -281 156 -375 185 -575 12 -82 28 -193 36 -245 8 -52 18 -126 24
-165 5 -38 13 -91 18 -117 5 -26 7 -49 5 -52 -5 -5 -56 8 -109 27 -110 40
-190 102 -224 172 -18 38 -21 56 -16 117 13 162 16 284 7 297 -50 76 -97 -256
-55 -400 17 -60 72 -175 91 -191 45 -37 -39 -22 -134 24 -79 38 -126 84 -142
139 -7 23 -17 97 -21 163 -10 129 -39 241 -86 325 -17 31 -24 58 -23 90 0 25
-2 94 -6 153 -5 62 -3 199 4 325 14 243 10 275 -40 376 -34 70 -37 74 -102
178 -26 42 -54 98 -62 125 -20 70 -43 249 -50 394 -6 110 -10 132 -36 185 -15
33 -42 76 -58 95 -17 19 -28 36 -26 38 3 3 30 -15 60 -39 126 -99 133 -103
150 -89 13 11 13 17 -7 51 -47 84 -293 295 -483 415 -44 28 -110 70 -148 94
-73 46 -157 131 -186 189 -10 20 -24 61 -30 92 -26 125 26 171 215 193 60 7
111 11 113 10 2 -2 -22 -31 -53 -65z m-846 -12 c0 -22 -95 -96 -107 -83 -7 7
28 76 44 85 26 15 63 13 63 -2z m-270 -43 c23 -21 56 -68 77 -111 l37 -75 -23
-19 c-15 -13 -39 -19 -71 -19 -41 0 -48 3 -53 23 -3 12 -17 53 -31 90 -14 37
-26 86 -26 107 0 36 3 40 25 40 15 0 42 -15 65 -36z m720 -55 c12 -103 28
-168 51 -207 10 -18 19 -35 19 -38 0 -10 -71 -3 -111 11 -71 26 -82 41 -75
106 10 100 74 235 98 211 6 -6 14 -43 18 -83z m-589 -6 c13 -16 12 -17 -3 -4
-10 7 -18 15 -18 17 0 8 8 3 21 -13z m213 -39 c21 -21 21 -21 -16 -44 -38 -23
-96 -26 -122 -7 -16 12 -16 14 6 25 23 12 97 40 110 41 4 1 14 -6 22 -15z
m520 -107 c34 -58 116 -134 203 -191 39 -25 74 -46 77 -46 6 0 200 -134 251
-174 147 -114 313 -286 278 -286 -5 0 -44 30 -88 66 -44 36 -101 76 -126 89
-26 13 -71 52 -100 86 -114 132 -134 151 -203 197 -63 42 -171 98 -278 145
-37 16 -38 18 -38 71 0 30 -3 61 -6 70 -12 31 6 15 30 -27z m-1066 -623 c-3
-19 -34 -41 -43 -32 -9 9 18 48 33 48 7 0 12 -7 10 -16z m1175 -449 c2 -93 0
-105 -29 -165 -31 -64 -126 -180 -166 -201 -17 -9 -18 -8 -9 9 6 11 15 22 19
24 13 5 91 123 125 191 31 60 32 65 32 196 0 125 1 130 13 90 7 -24 14 -89 15
-144z m1404 -290 c70 -47 263 -240 346 -344 37 -47 65 -87 62 -89 -5 -6 -88
58 -184 143 -103 89 -205 193 -247 251 -63 88 -59 94 23 39z m-2977 -393 c0
-19 -56 -92 -71 -92 -18 0 -9 44 17 77 27 36 54 44 54 15z m2936 -249 c47 -97
137 -357 132 -382 -2 -8 -18 25 -37 75 -19 49 -67 164 -107 256 -41 93 -74
174 -74 180 1 24 42 -38 86 -129z m-655 -344 c44 -22 79 -55 124 -113 34 -45
29 -72 -25 -126 -31 -31 -48 -40 -75 -40 -102 0 -200 206 -130 275 30 30 53
31 106 4z m836 -301 c-3 -7 -5 -2 -5 12 0 14 2 19 5 13 2 -7 2 -19 0 -25z
m-317 -213 l-20 -80 4 120 c3 66 11 136 18 155 13 35 13 34 16 -40 2 -51 -4
-101 -18 -155z"/>
</g>
</svg>
